<svg width="1600" height="1000" viewBox="0 0 1600 1000" fill="none" xmlns="http://www.w3.org/2000/svg">
  <rect width="1600" height="1000" fill="#030403"/>
  <g opacity="0.72">
    <circle cx="280" cy="190" r="260" fill="url(#emeraldGlow)"/>
    <circle cx="1210" cy="170" r="310" fill="url(#goldGlow)"/>
    <circle cx="920" cy="760" r="360" fill="url(#deepGlow)"/>
  </g>
  <g opacity="0.24">
    <path d="M0 700C240 590 390 780 640 650C890 520 1010 320 1600 430V1000H0V700Z" fill="url(#waveGold)"/>
    <path d="M0 780C230 660 430 820 690 720C980 608 1130 510 1600 620V1000H0V780Z" fill="url(#waveEmerald)"/>
  </g>
  <g opacity="0.32" stroke="#18F2A6" stroke-width="1">
    <path d="M0 120H1600"/>
    <path d="M0 260H1600"/>
    <path d="M0 400H1600"/>
    <path d="M0 540H1600"/>
    <path d="M0 680H1600"/>
    <path d="M0 820H1600"/>
    <path d="M160 0V1000"/>
    <path d="M320 0V1000"/>
    <path d="M480 0V1000"/>
    <path d="M640 0V1000"/>
    <path d="M800 0V1000"/>
    <path d="M960 0V1000"/>
    <path d="M1120 0V1000"/>
    <path d="M1280 0V1000"/>
    <path d="M1440 0V1000"/>
  </g>
  <g transform="translate(1120 330)" opacity="0.88">
    <circle cx="120" cy="120" r="112" stroke="#FFD978" stroke-width="5"/>
    <path d="M40 86C76 50 112 48 148 84C106 68 72 70 40 104M200 86C164 50 128 48 92 84C134 68 168 70 200 104" stroke="#FFD978" stroke-width="12" stroke-linecap="round"/>
    <path d="M120 82C98 106 92 132 104 172M120 82C142 106 148 132 136 172" stroke="#FFD978" stroke-width="12" stroke-linecap="round"/>
    <path d="M52 160H188M64 184H176M84 208H156" stroke="#FFD978" stroke-width="13" stroke-linecap="round"/>
  </g>
  <g opacity="0.54">
    <rect x="120" y="610" width="280" height="210" rx="34" fill="#07110D" stroke="#18F2A6" stroke-width="3"/>
    <rect x="450" y="560" width="330" height="260" rx="34" fill="#07110D" stroke="#FFD978" stroke-width="2"/>
    <rect x="820" y="610" width="240" height="210" rx="34" fill="#07110D" stroke="#18F2A6" stroke-width="2"/>
  </g>
  <defs>
    <radialGradient id="emeraldGlow" cx="0" cy="0" r="1" gradientUnits="userSpaceOnUse" gradientTransform="translate(280 190) rotate(90) scale(260)">
      <stop stop-color="#18F2A6" stop-opacity="0.45"/>
      <stop offset="1" stop-color="#18F2A6" stop-opacity="0"/>
    </radialGradient>
    <radialGradient id="goldGlow" cx="0" cy="0" r="1" gradientUnits="userSpaceOnUse" gradientTransform="translate(1210 170) rotate(90) scale(310)">
      <stop stop-color="#FFD978" stop-opacity="0.38"/>
      <stop offset="1" stop-color="#FFD978" stop-opacity="0"/>
    </radialGradient>
    <radialGradient id="deepGlow" cx="0" cy="0" r="1" gradientUnits="userSpaceOnUse" gradientTransform="translate(920 760) rotate(90) scale(360)">
      <stop stop-color="#18F2A6" stop-opacity="0.24"/>
      <stop offset="1" stop-color="#18F2A6" stop-opacity="0"/>
    </radialGradient>
    <linearGradient id="waveGold" x1="0" y1="650" x2="1600" y2="650" gradientUnits="userSpaceOnUse">
      <stop stop-color="#FFD978" stop-opacity="0"/>
      <stop offset="0.46" stop-color="#FFD978" stop-opacity="0.44"/>
      <stop offset="1" stop-color="#FFD978" stop-opacity="0.08"/>
    </linearGradient>
    <linearGradient id="waveEmerald" x1="0" y1="780" x2="1600" y2="780" gradientUnits="userSpaceOnUse">
      <stop stop-color="#18F2A6" stop-opacity="0.1"/>
      <stop offset="0.52" stop-color="#18F2A6" stop-opacity="0.34"/>
      <stop offset="1" stop-color="#18F2A6" stop-opacity="0"/>
    </linearGradient>
  </defs>
</svg>
